<svg width="69" height="16" viewBox="0 0 69 16" fill="none" xmlns="http://www.w3.org/2000/svg">
<g id="logo">
<g id="link">
<path d="M0 13.8496H7.86212V12.078H2.19408V2.15042H0V13.8496Z" fill="#27272A"/>
<path d="M13.523 14C16.9056 14 19.1911 11.9276 19.1911 8.43454V7.56546C19.1911 4.05571 16.9421 2 13.523 2C10.1405 2 7.85498 4.08914 7.85498 7.56546V8.43454C7.85498 11.9443 10.1039 14 13.523 14ZM13.523 12.1281C11.5484 12.1281 10.1588 10.8579 10.1588 8.43454V7.56546C10.1588 5.10864 11.5118 3.87187 13.523 3.87187C15.4794 3.87187 16.8873 5.15877 16.8873 7.56546V8.43454C16.8873 10.8914 15.516 12.1281 13.523 12.1281Z" fill="#27272A"/>
<path d="M25.864 9.50418H29.1551C28.9357 11.3928 27.8935 12.1281 26.0469 12.1281C24.1088 12.1281 22.774 10.9248 22.774 8.45125V7.54875C22.774 5.00836 23.9442 3.87187 26.0469 3.87187C27.5461 3.87187 28.4238 4.67409 28.7895 5.74373H31.1664C30.8007 3.67131 28.9723 2 26.0469 2C22.5363 2 20.4702 3.97215 20.4702 7.54875V8.45125C20.4702 12.0446 22.6095 14 26.0469 14C29.2831 14 31.2578 12.195 31.2578 8.66852V7.79944H25.864V9.50418Z" fill="#27272A"/>
<path d="M38.2 14C41.5826 14 43.8681 11.9276 43.8681 8.43454V7.56546C43.8681 4.05571 41.6191 2 38.2 2C34.8175 2 32.532 4.08914 32.532 7.56546V8.43454C32.532 11.9443 34.7809 14 38.2 14ZM38.2 12.1281C36.2253 12.1281 34.8358 10.8579 34.8358 8.43454V7.56546C34.8358 5.10864 36.1888 3.87187 38.2 3.87187C40.1564 3.87187 41.5643 5.15877 41.5643 7.56546V8.43454C41.5643 10.8914 40.193 12.1281 38.2 12.1281Z" fill="#27272A"/>
<path d="M43.8666 3.92201H47.7977V13.8496H49.9918V3.92201H53.9228V2.15042H43.8666V3.92201Z" fill="#27272A"/>
<path d="M55.2041 13.8496H57.3982V2.15042H55.2041V13.8496Z" fill="#27272A"/>
<path d="M59.6752 13.8496H61.8692V9.87187H64.0633C67.3362 9.87187 69 8.35097 69 6.01114C69 3.52089 67.5007 2.15042 64.0633 2.15042H59.6752V13.8496ZM64.0633 3.92201C65.8734 3.92201 66.6962 4.67409 66.6962 6.01114C66.6962 7.28134 65.8003 8.10028 64.0633 8.10028H61.8692V3.92201H64.0633Z" fill="#27272A"/>
</g>
</g>
</svg>
