<svg width="80" height="80" viewBox="0 0 80 80" fill="none" xmlns="http://www.w3.org/2000/svg">
<g id="24&#195;&#151;24">
<path id="Vector" d="M70 54.7333V66.52C70.0004 67.3639 69.6806 68.1766 69.1053 68.794C68.53 69.4114 67.7419 69.7876 66.9 69.8467C65.4433 69.9467 64.2533 70 63.3333 70C33.8767 70 10 46.1233 10 16.6667C10 15.7467 10.05 14.5567 10.1533 13.1C10.2124 12.2581 10.5886 11.47 11.206 10.8947C11.8234 10.3194 12.6361 9.99962 13.48 10H25.2667C25.6801 9.99958 26.079 10.1529 26.3858 10.4301C26.6925 10.7073 26.8853 11.0886 26.9267 11.5C27.0033 12.2667 27.0733 12.8767 27.14 13.34C27.8024 17.9631 29.16 22.4594 31.1667 26.6767C31.4833 27.3433 31.2767 28.14 30.6767 28.5667L23.4833 33.7067C27.8815 43.9548 36.0485 52.1218 46.2967 56.52L51.43 49.34C51.6398 49.0467 51.9459 48.8363 52.295 48.7455C52.644 48.6547 53.0139 48.6894 53.34 48.8433C57.5567 50.8462 62.0519 52.2004 66.6733 52.86C67.1367 52.9267 67.7467 53 68.5067 53.0733C68.9175 53.1155 69.298 53.3086 69.5745 53.6153C69.851 53.922 70.0038 54.3204 70.0033 54.7333H70Z" fill="#8A8CCE"/>
</g>
</svg>
