<svg width="295" height="328" viewBox="0 0 295 328" fill="none" xmlns="http://www.w3.org/2000/svg">
<path d="M148 271.627V296L226 251.245V226.885L148 271.627Z" stroke="#2E2E2E" stroke-miterlimit="10" stroke-linecap="round" stroke-linejoin="round"/>
<path d="M70 226.885V251.245L148 296V271.627L70 226.885Z" stroke="#2E2E2E" stroke-miterlimit="10" stroke-linecap="round" stroke-linejoin="round"/>
<path d="M148.001 149.048L207.915 114.672L207.967 227.713L147.975 261.26L148.001 149.048Z" stroke="#2E2E2E" stroke-miterlimit="10" stroke-linecap="round" stroke-linejoin="round"/>
<path d="M147.974 148.996L88.0861 114.672L87.9688 226.08L147.974 261.26V148.996Z" stroke="#2E2E2E" stroke-miterlimit="10" stroke-linecap="round" stroke-linejoin="round"/>
<path d="M190.339 93.4482L148.105 117.692V138.89L190.378 114.634L190.339 93.4482Z" stroke="#2E2E2E" stroke-miterlimit="10" stroke-linecap="round" stroke-linejoin="round"/>
<path d="M105.661 93.4482L148.025 117.692V138.89L105.622 114.634L105.661 93.4482Z" stroke="#2E2E2E" stroke-miterlimit="10" stroke-linecap="round" stroke-linejoin="round"/>
<path d="M125.509 39.7506L125.926 39.5061C125.926 39.5061 134.649 34.5638 136.292 33.6113C140.764 31.0243 146.671 31.5649 152.956 35.1429C165.643 42.3763 175.97 60.0348 175.97 74.5015C175.97 81.5804 173.972 87.1765 169.539 89.7249C165.406 92.106 158.901 95.6645 158.901 95.6645" stroke="#2E2E2E" stroke-width="2" stroke-miterlimit="10" stroke-linecap="round" stroke-linejoin="round"/>
<path d="M152.562 97.3471C149.354 97.3471 145.808 96.2846 142.144 94.1855C129.457 86.9034 119.13 69.1257 119.13 54.5614C119.13 47.3959 121.581 42.0445 126.041 39.4919C130.5 36.9392 136.394 37.4964 142.626 41.0727C155.313 48.3548 165.64 66.1325 165.64 80.6967C165.64 87.8622 163.189 93.2137 158.73 95.7663C156.891 96.8288 154.818 97.3471 152.562 97.3471Z" stroke="#2E2E2E" stroke-width="2" stroke-miterlimit="10" stroke-linecap="round" stroke-linejoin="round"/>
<path d="M88.0861 114.672L87.9688 226.08L96.3659 231.004V119.414L88.0861 114.672Z" stroke="#2E2E2E" stroke-miterlimit="10" stroke-linecap="round" stroke-linejoin="round"/>
<path d="M96.4966 119.469L96.3662 230.97L104.776 235.897V124.228L96.4966 119.469Z" stroke="#2E2E2E" stroke-miterlimit="10" stroke-linecap="round" stroke-linejoin="round"/>
<path d="M104.918 124.311L104.801 235.88L113.198 240.811V129.06L104.918 124.311Z" stroke="#2E2E2E" stroke-miterlimit="10" stroke-linecap="round" stroke-linejoin="round"/>
<path d="M113.331 129.15L113.2 240.882L121.61 245.819V133.919L113.331 129.15Z" stroke="#2E2E2E" stroke-miterlimit="10" stroke-linecap="round" stroke-linejoin="round"/>
<path d="M121.727 133.934L121.609 245.719L130.007 250.66V138.692L121.727 133.934Z" stroke="#2E2E2E" stroke-miterlimit="10" stroke-linecap="round" stroke-linejoin="round"/>
<path d="M129.824 138.658L129.707 250.532L138.104 255.476V143.433L129.824 138.658Z" stroke="#2E2E2E" stroke-miterlimit="10" stroke-linecap="round" stroke-linejoin="round"/>
<path d="M148.001 149.046L157.285 143.721V255.829L147.975 261.258L148.001 149.046Z" stroke="#2E2E2E" stroke-miterlimit="10" stroke-linecap="round" stroke-linejoin="round"/>
<path d="M148 149.014L157.284 143.721V256.029L148.104 261.258L148 149.014Z" stroke="#2E2E2E" stroke-miterlimit="10" stroke-linecap="round" stroke-linejoin="round"/>
<path d="M157.286 143.751L166.57 138.474V250.699L157.377 255.937L157.286 143.751Z" stroke="#2E2E2E" stroke-miterlimit="10" stroke-linecap="round" stroke-linejoin="round"/>
<path d="M166.565 138.378L175.836 133.08V245.449L166.657 250.682L166.565 138.378Z" stroke="#2E2E2E" stroke-miterlimit="10" stroke-linecap="round" stroke-linejoin="round"/>
<path d="M175.84 133.054L185.124 127.752V240.261L175.944 245.512L175.84 133.054Z" stroke="#2E2E2E" stroke-miterlimit="10" stroke-linecap="round" stroke-linejoin="round"/>
<path d="M185.123 127.712L194.407 122.406V235.134L185.214 240.388L185.123 127.712Z" stroke="#2E2E2E" stroke-miterlimit="10" stroke-linecap="round" stroke-linejoin="round"/>
<path d="M194.407 122.445L203.691 117.127V230.031L194.498 235.284L194.407 122.445Z" stroke="#2E2E2E" stroke-miterlimit="10" stroke-linecap="round" stroke-linejoin="round"/>
<path d="M140.006 81.5785C137.307 79.9459 134.868 77.9893 132.326 75.4626C131.83 74.9702 131.504 74.2446 131.491 73.6356L131.413 69.1652C131.4 68.1416 132.3 67.9213 133.134 68.7765C134.23 69.8909 135.377 70.9793 136.577 72.0418C138.441 73.6874 140.084 74.8925 141.492 75.6699C142.653 76.3048 143.5 76.6158 144.035 76.6028C144.569 76.5769 144.83 76.2012 144.817 75.4496C144.804 74.9313 144.609 74.4001 144.217 73.817C143.826 73.2469 143.161 72.4824 142.249 71.5365C141.336 70.5906 140.097 69.3596 138.545 67.8695C136.798 66.185 135.39 64.5912 134.308 63.0882C133.226 61.5851 132.43 60.1468 131.935 58.7474C131.426 57.348 131.165 55.819 131.139 54.1475C131.1 51.5819 131.791 49.9881 133.212 49.3403C134.634 48.6924 136.472 48.8608 139.367 50.1307L139.328 47.4225C139.302 46.0879 140.54 45.6215 141.714 46.2693C142.887 46.9172 144.178 48.7831 144.204 50.1177L144.257 52.774C146.578 54.1993 148.586 55.8579 150.946 58.1514C151.624 58.8122 151.95 59.8747 151.689 60.4708L150.307 63.6065C150.046 64.2025 149.303 64.0989 148.638 63.451C146.238 61.0538 144.048 59.3175 142.079 58.2161C140.984 57.6071 140.214 57.335 139.784 57.3998C139.341 57.4517 139.132 57.7756 139.145 58.3716C139.158 58.8899 139.315 59.3953 139.654 59.9006C139.98 60.406 140.54 61.0927 141.336 61.935C142.131 62.7901 143.24 63.8656 144.661 65.1873C147.529 67.9084 149.603 70.3573 150.867 72.5083C152.132 74.6592 152.784 76.9009 152.823 79.2073C152.862 81.8118 152.171 83.5351 150.75 84.3644C149.329 85.1937 147.399 85.103 144.609 83.9498L144.674 87.7981C144.7 89.1328 143.592 89.5863 142.418 88.9384C141.245 88.2905 140.084 86.632 140.071 85.2973L140.006 81.5785Z" stroke="#2E2E2E" stroke-miterlimit="10" stroke-linecap="round" stroke-linejoin="round"/>
<path d="M105.115 93.8633V104.902L88.0862 114.672L87.2908 216.959L70.001 226.884V251.244L148.001 295.999L226 251.244V226.884L208.763 217.347L207.915 114.672L190.873 104.578L190.743 94.6009L190.325 93.4607L174.6 84.4422C175.813 81.8637 175.969 78.43 175.969 74.8019C175.969 60.2376 165.642 42.4599 152.955 35.1778C146.671 31.5756 140.764 31.0314 136.292 33.6359C134.766 34.5299 127.125 38.8966 126.056 39.5056H126.043C126.043 39.5056 126.03 39.5056 126.03 39.5186C125.965 39.5575 125.926 39.5834 125.926 39.5834L125.508 39.8296L125.534 39.8684C121.414 42.5377 119.132 47.7207 119.132 54.5882C119.132 63.0883 122.446 72.4472 127.884 80.4161L105.115 93.8633Z" stroke="#2E2E2E" stroke-width="2" stroke-miterlimit="10" stroke-linecap="round" stroke-linejoin="round"/>
</svg>
